<?xml version="1.0" encoding="UTF-8" standalone="no"?>
<!DOCTYPE svg PUBLIC "-//W3C//DTD SVG 1.1//EN"
 "http://www.w3.org/Graphics/SVG/1.1/DTD/svg11.dtd">
<!-- Generated by graphviz version 2.40.1 (20161225.0304)
 -->
<!-- Title: pipeline Pages: 1 -->
<svg width="653pt" height="205pt"
 viewBox="0.00 0.00 653.00 205.00" xmlns="http://www.w3.org/2000/svg" xmlns:xlink="http://www.w3.org/1999/xlink">
<g id="graph0" class="graph" transform="scale(1 1) rotate(0) translate(4 201)">
<title>pipeline</title>
<polygon fill="#ffffff" stroke="transparent" points="-4,4 -4,-201 649,-201 649,4 -4,4"/>
<g id="clust1" class="cluster">
<title>cluster_0</title>
<polygon fill="none" stroke="transparent" points="8,-84 8,-138 284,-138 284,-84 8,-84"/>
</g>
<g id="clust2" class="cluster">
<title>cluster_1</title>
<polygon fill="none" stroke="#000000" stroke-dasharray="5,2" points="333,-8 333,-189 528,-189 528,-8 333,-8"/>
<text text-anchor="middle" x="430.5" y="-173.8" font-family="Times,serif" font-size="14.00" fill="#000000">(for each face)</text>
</g>
<g id="clust3" class="cluster">
<title>cluster_2</title>
<polygon fill="none" stroke="transparent" stroke-dasharray="5,2" points="341,-82 341,-158 520,-158 520,-82 341,-82"/>
</g>
<g id="clust4" class="cluster">
<title>cluster_3</title>
<polygon fill="none" stroke="transparent" stroke-dasharray="5,2" points="341,-16 341,-74 515,-74 515,-16 341,-16"/>
</g>
<!-- capture -->
<g id="node1" class="node">
<title>capture</title>
<polygon fill="#5b9bd5" stroke="#4c7aa4" points="16,-93 16,-129 71,-129 71,-93 16,-93"/>
<text text-anchor="middle" x="43.5" y="-114" font-family="Helvetica,sans-Serif" font-size="10.00" fill="#ffffff">Capture</text>
<text text-anchor="middle" x="43.5" y="-103" font-family="Helvetica,sans-Serif" font-size="10.00" fill="#ffffff">Decode</text>
</g>
<!-- resize -->
<g id="node2" class="node">
<title>resize</title>
<polygon fill="#5b9bd5" stroke="#4c7aa4" points="107,-93 107,-129 162,-129 162,-93 107,-93"/>
<text text-anchor="middle" x="134.5" y="-114" font-family="Helvetica,sans-Serif" font-size="10.00" fill="#ffffff">Resize</text>
<text text-anchor="middle" x="134.5" y="-103" font-family="Helvetica,sans-Serif" font-size="10.00" fill="#ffffff">Convert</text>
</g>
<!-- capture&#45;&gt;resize -->
<g id="edge1" class="edge">
<title>capture&#45;&gt;resize</title>
<path fill="none" stroke="#62a8e7" d="M71.2975,-111C71.2975,-111 96.8728,-111 96.8728,-111"/>
<polygon fill="#62a8e7" stroke="#62a8e7" points="96.8728,-114.5001 106.8728,-111 96.8727,-107.5001 96.8728,-114.5001"/>
</g>
<!-- temp_4 -->
<!-- capture&#45;&gt;temp_4 -->
<g id="edge8" class="edge">
<title>capture&#45;&gt;temp_4</title>
<path fill="none" stroke="#62a8e7" d="M44,-129.1299C44,-139.3145 44,-150 44,-150 44,-150 371.325,-150 376.4394,-150"/>
</g>
<!-- temp_2 -->
<!-- capture&#45;&gt;temp_2 -->
<g id="edge9" class="edge">
<title>capture&#45;&gt;temp_2</title>
<path fill="none" stroke="#62a8e7" d="M44,-92.9652C44,-73.4238 44,-45 44,-45 44,-45 308.3211,-45 312.4511,-45"/>
</g>
<!-- detect -->
<g id="node3" class="node">
<title>detect</title>
<polygon fill="#5b9bd5" stroke="#4c7aa4" points="198,-93 198,-129 276,-129 276,-93 198,-93"/>
<text text-anchor="middle" x="237" y="-108.5" font-family="Helvetica,sans-Serif" font-size="10.00" fill="#ffffff">Detect faces</text>
</g>
<!-- resize&#45;&gt;detect -->
<g id="edge2" class="edge">
<title>resize&#45;&gt;detect</title>
<path fill="none" stroke="#62a8e7" d="M162.238,-111C162.238,-111 187.696,-111 187.696,-111"/>
<polygon fill="#62a8e7" stroke="#62a8e7" points="187.696,-114.5001 197.696,-111 187.696,-107.5001 187.696,-114.5001"/>
</g>
<!-- temp_1 -->
<!-- detect&#45;&gt;temp_1 -->
<g id="edge6" class="edge">
<title>detect&#45;&gt;temp_1</title>
<path fill="none" stroke="#62a8e7" d="M276.0769,-111C293.9237,-111 311.3746,-111 312.4478,-111"/>
</g>
<!-- postproc_1 -->
<g id="node5" class="node">
<title>postproc_1</title>
<polygon fill="#5b9bd5" stroke="#4c7aa4" points="349,-90.5 349,-131.5 404,-131.5 404,-90.5 349,-90.5"/>
<text text-anchor="middle" x="376.5" y="-119.5" font-family="Helvetica,sans-Serif" font-size="10.00" fill="#ffffff">Crop</text>
<text text-anchor="middle" x="376.5" y="-108.5" font-family="Helvetica,sans-Serif" font-size="10.00" fill="#ffffff">Resize</text>
<text text-anchor="middle" x="376.5" y="-97.5" font-family="Helvetica,sans-Serif" font-size="10.00" fill="#ffffff">Convert</text>
</g>
<!-- temp_4&#45;&gt;postproc_1 -->
<g id="edge4" class="edge">
<title>temp_4&#45;&gt;postproc_1</title>
<path fill="none" stroke="#62a8e7" d="M377,-149.8881C377,-149.8881 377,-141.7988 377,-141.7988"/>
<polygon fill="#62a8e7" stroke="#62a8e7" points="380.5001,-141.7988 377,-131.7988 373.5001,-141.7989 380.5001,-141.7988"/>
</g>
<!-- age_gender -->
<g id="node6" class="node">
<title>age_gender</title>
<polygon fill="#5b9bd5" stroke="#4c7aa4" points="440,-92 440,-128 512,-128 512,-92 440,-92"/>
<text text-anchor="middle" x="476" y="-113" font-family="Helvetica,sans-Serif" font-size="10.00" fill="#ffffff">Classify</text>
<text text-anchor="middle" x="476" y="-102" font-family="Helvetica,sans-Serif" font-size="10.00" fill="#ffffff">Age/gender</text>
</g>
<!-- postproc_1&#45;&gt;age_gender -->
<g id="edge3" class="edge">
<title>postproc_1&#45;&gt;age_gender</title>
<path fill="none" stroke="#62a8e7" d="M404.2163,-110C404.2163,-110 429.8672,-110 429.8672,-110"/>
<polygon fill="#62a8e7" stroke="#62a8e7" points="429.8672,-113.5001 439.8672,-110 429.8671,-106.5001 429.8672,-113.5001"/>
</g>
<!-- temp_3 -->
<!-- age_gender&#45;&gt;temp_3 -->
<g id="edge12" class="edge">
<title>age_gender&#45;&gt;temp_3</title>
<path fill="none" stroke="#62a8e7" d="M512.4219,-112.5C530.2802,-112.5 548,-112.5 548,-112.5 548,-112.5 548,-80.1226 548,-78.099"/>
</g>
<!-- postproc_2 -->
<g id="node7" class="node">
<title>postproc_2</title>
<polygon fill="#5b9bd5" stroke="#4c7aa4" points="349,-24.5 349,-65.5 404,-65.5 404,-24.5 349,-24.5"/>
<text text-anchor="middle" x="376.5" y="-53.5" font-family="Helvetica,sans-Serif" font-size="10.00" fill="#ffffff">Crop</text>
<text text-anchor="middle" x="376.5" y="-42.5" font-family="Helvetica,sans-Serif" font-size="10.00" fill="#ffffff">Resize</text>
<text text-anchor="middle" x="376.5" y="-31.5" font-family="Helvetica,sans-Serif" font-size="10.00" fill="#ffffff">Convert</text>
</g>
<!-- emo -->
<g id="node8" class="node">
<title>emo</title>
<polygon fill="#5b9bd5" stroke="#4c7aa4" points="445,-28 445,-64 507,-64 507,-28 445,-28"/>
<text text-anchor="middle" x="476" y="-49" font-family="Helvetica,sans-Serif" font-size="10.00" fill="#ffffff">Classify</text>
<text text-anchor="middle" x="476" y="-38" font-family="Helvetica,sans-Serif" font-size="10.00" fill="#ffffff">Emotions</text>
</g>
<!-- postproc_2&#45;&gt;emo -->
<g id="edge5" class="edge">
<title>postproc_2&#45;&gt;emo</title>
<path fill="none" stroke="#62a8e7" d="M404.2163,-46C404.2163,-46 434.9311,-46 434.9311,-46"/>
<polygon fill="#62a8e7" stroke="#62a8e7" points="434.9312,-49.5001 444.9311,-46 434.9311,-42.5001 434.9312,-49.5001"/>
</g>
<!-- emo&#45;&gt;temp_3 -->
<g id="edge13" class="edge">
<title>emo&#45;&gt;temp_3</title>
<path fill="none" stroke="#62a8e7" d="M507.3708,-43.5C526.7733,-43.5 548,-43.5 548,-43.5 548,-43.5 548,-75.8774 548,-77.901"/>
</g>
<!-- temp_1&#45;&gt;postproc_1 -->
<g id="edge7" class="edge">
<title>temp_1&#45;&gt;postproc_1</title>
<path fill="none" stroke="#62a8e7" d="M312.5464,-111C312.5464,-111 338.9287,-111 338.9287,-111"/>
<polygon fill="#62a8e7" stroke="#62a8e7" points="338.9288,-114.5001 348.9287,-111 338.9287,-107.5001 338.9288,-114.5001"/>
</g>
<!-- temp_1&#45;&gt;temp_2 -->
<g id="edge11" class="edge">
<title>temp_1&#45;&gt;temp_2</title>
<path fill="none" stroke="#62a8e7" d="M313,-110.9522C313,-108.9848 313,-46.9834 313,-45.0464"/>
</g>
<!-- temp_2&#45;&gt;postproc_2 -->
<g id="edge10" class="edge">
<title>temp_2&#45;&gt;postproc_2</title>
<path fill="none" stroke="#62a8e7" d="M312.5464,-45C312.5464,-45 338.9287,-45 338.9287,-45"/>
<polygon fill="#62a8e7" stroke="#62a8e7" points="338.9288,-48.5001 348.9287,-45 338.9287,-41.5001 338.9288,-48.5001"/>
</g>
<!-- show -->
<g id="node12" class="node">
<title>show</title>
<polygon fill="#5b9bd5" stroke="#4c7aa4" points="584,-60 584,-96 645,-96 645,-60 584,-60"/>
<text text-anchor="middle" x="614.5" y="-81" font-family="Helvetica,sans-Serif" font-size="10.00" fill="#ffffff">Visualize</text>
<text text-anchor="middle" x="614.5" y="-70" font-family="Helvetica,sans-Serif" font-size="10.00" fill="#ffffff">Display</text>
</g>
<!-- temp_3&#45;&gt;show -->
<g id="edge14" class="edge">
<title>temp_3&#45;&gt;show</title>
<path fill="none" stroke="#62a8e7" d="M548.0482,-78C548.0482,-78 573.9445,-78 573.9445,-78"/>
<polygon fill="#62a8e7" stroke="#62a8e7" points="573.9445,-81.5001 583.9445,-78 573.9444,-74.5001 573.9445,-81.5001"/>
</g>
</g>
</svg>
