<?xml version="1.0" encoding="UTF-8" standalone="no"?>
<!DOCTYPE svg PUBLIC "-//W3C//DTD SVG 1.1//EN"
 "http://www.w3.org/Graphics/SVG/1.1/DTD/svg11.dtd">
<!-- Generated by graphviz version 2.40.1 (20161225.0304)
 -->
<!-- Title: Pipeline Pages: 1 -->
<svg width="708pt" height="264pt"
 viewBox="0.00 0.00 708.41 264.20" xmlns="http://www.w3.org/2000/svg" xmlns:xlink="http://www.w3.org/1999/xlink">
<g id="graph0" class="graph" transform="scale(1 1) rotate(0) translate(4 260.2046)">
<title>Pipeline</title>
<polygon fill="#ffffff" stroke="transparent" points="-4,4 -4,-260.2046 704.4092,-260.2046 704.4092,4 -4,4"/>
<g id="clust1" class="cluster">
<title>cluster_0</title>
<polygon fill="none" stroke="#000000" stroke-dasharray="5,2" points="212,-164.0416 212,-237.0416 299,-237.0416 299,-164.0416 212,-164.0416"/>
<text text-anchor="middle" x="255.5" y="-225.0416" font-family="Times,serif" font-size="10.00" fill="#000000">for each face</text>
</g>
<!-- input -->
<g id="node1" class="node">
<title>input</title>
<polygon fill="#5b9bd5" stroke="#4c7aa4" points="0,-100.0416 0,-136.0416 54,-136.0416 54,-100.0416 0,-100.0416"/>
<text text-anchor="middle" x="27" y="-115.5416" font-family="Helvetica,sans-Serif" font-size="10.00" fill="#ffffff">Input</text>
</g>
<!-- temp_1 -->
<!-- input&#45;&gt;temp_1 -->
<g id="edge1" class="edge">
<title>input&#45;&gt;temp_1</title>
<path fill="none" stroke="#62a8e7" d="M54.0833,-118.0416C70.6248,-118.0416 88.8241,-118.0416 89.9454,-118.0416"/>
</g>
<!-- fd -->
<g id="node2" class="node">
<title>fd</title>
<polygon fill="#5b9bd5" stroke="#4c7aa4" points="126.5,-167.0416 126.5,-203.0416 183.5,-203.0416 183.5,-167.0416 126.5,-167.0416"/>
<text text-anchor="middle" x="155" y="-188.0416" font-family="Helvetica,sans-Serif" font-size="10.00" fill="#ffffff">Face</text>
<text text-anchor="middle" x="155" y="-177.0416" font-family="Helvetica,sans-Serif" font-size="10.00" fill="#ffffff">detector</text>
</g>
<!-- unshMask -->
<g id="node4" class="node">
<title>unshMask</title>
<polygon fill="#5b9bd5" stroke="#4c7aa4" points="126.5,-100.0416 126.5,-136.0416 183.5,-136.0416 183.5,-100.0416 126.5,-100.0416"/>
<text text-anchor="middle" x="155" y="-121.0416" font-family="Helvetica,sans-Serif" font-size="10.00" fill="#ffffff">Unsharp</text>
<text text-anchor="middle" x="155" y="-110.0416" font-family="Helvetica,sans-Serif" font-size="10.00" fill="#ffffff">mask</text>
</g>
<!-- fd&#45;&gt;unshMask -->
<!-- ld -->
<g id="node11" class="node">
<title>ld</title>
<polygon fill="#5b9bd5" stroke="#4c7aa4" points="220,-173.0416 220,-209.0416 291,-209.0416 291,-173.0416 220,-173.0416"/>
<text text-anchor="middle" x="255.5" y="-194.0416" font-family="Helvetica,sans-Serif" font-size="10.00" fill="#ffffff">Landmarks</text>
<text text-anchor="middle" x="255.5" y="-183.0416" font-family="Helvetica,sans-Serif" font-size="10.00" fill="#ffffff">detector</text>
</g>
<!-- fd&#45;&gt;ld -->
<g id="edge3" class="edge">
<title>fd&#45;&gt;ld</title>
<path fill="none" stroke="#62a8e7" d="M183.5304,-188.0416C183.5304,-188.0416 209.7269,-188.0416 209.7269,-188.0416"/>
<polygon fill="#62a8e7" stroke="#62a8e7" points="209.727,-191.5417 219.7269,-188.0416 209.7269,-184.5417 209.727,-191.5417"/>
</g>
<!-- bgMask -->
<g id="node3" class="node">
<title>bgMask</title>
<polygon fill="#5b9bd5" stroke="#4c7aa4" points="370,-194.0416 370,-230.0416 432,-230.0416 432,-194.0416 370,-194.0416"/>
<text text-anchor="middle" x="401" y="-215.0416" font-family="Helvetica,sans-Serif" font-size="10.00" fill="#ffffff">Generate</text>
<text text-anchor="middle" x="401" y="-204.0416" font-family="Helvetica,sans-Serif" font-size="10.00" fill="#ffffff">BG mask</text>
</g>
<!-- shMask -->
<g id="node6" class="node">
<title>shMask</title>
<polygon fill="#5b9bd5" stroke="#4c7aa4" points="364,-100.0416 364,-136.0416 438,-136.0416 438,-100.0416 364,-100.0416"/>
<text text-anchor="middle" x="401" y="-121.0416" font-family="Helvetica,sans-Serif" font-size="10.00" fill="#ffffff">Generate</text>
<text text-anchor="middle" x="401" y="-110.0416" font-family="Helvetica,sans-Serif" font-size="10.00" fill="#ffffff">sharp mask</text>
</g>
<!-- bgMask&#45;&gt;shMask -->
<!-- mul_1 -->
<g id="node8" class="node">
<title>mul_1</title>
<ellipse fill="#5b9bd5" stroke="#4c7aa4" cx="498.0416" cy="-212.0416" rx="24.0833" ry="24.0833"/>
<text text-anchor="middle" x="498.0416" y="-201.8416" font-family="Helvetica,sans-Serif" font-size="24.00" fill="#ffffff">*</text>
</g>
<!-- bgMask&#45;&gt;mul_1 -->
<g id="edge6" class="edge">
<title>bgMask&#45;&gt;mul_1</title>
<path fill="none" stroke="#62a8e7" d="M432.2387,-212.0416C432.2387,-212.0416 463.9408,-212.0416 463.9408,-212.0416"/>
<polygon fill="#62a8e7" stroke="#62a8e7" points="463.9409,-215.5417 473.9408,-212.0416 463.9408,-208.5417 463.9409,-215.5417"/>
</g>
<!-- bilFil -->
<g id="node5" class="node">
<title>bilFil</title>
<polygon fill="#5b9bd5" stroke="#4c7aa4" points="126,-30.0416 126,-66.0416 184,-66.0416 184,-30.0416 126,-30.0416"/>
<text text-anchor="middle" x="155" y="-51.0416" font-family="Helvetica,sans-Serif" font-size="10.00" fill="#ffffff">Bilateral</text>
<text text-anchor="middle" x="155" y="-40.0416" font-family="Helvetica,sans-Serif" font-size="10.00" fill="#ffffff">filter</text>
</g>
<!-- unshMask&#45;&gt;bilFil -->
<!-- mul_2 -->
<g id="node9" class="node">
<title>mul_2</title>
<ellipse fill="#5b9bd5" stroke="#4c7aa4" cx="498.0416" cy="-118.0416" rx="24.0833" ry="24.0833"/>
<text text-anchor="middle" x="498.0416" y="-107.8416" font-family="Helvetica,sans-Serif" font-size="24.00" fill="#ffffff">*</text>
</g>
<!-- unshMask&#45;&gt;mul_2 -->
<g id="edge32" class="edge">
<title>unshMask&#45;&gt;mul_2</title>
<path fill="none" stroke="#62a8e7" d="M165.4092,-136.1974C165.4092,-142.5197 165.4092,-148.0624 165.4092,-148.0624 165.4092,-148.0624 490.4092,-148.0624 490.4092,-148.0624 490.4092,-148.0624 490.4092,-147.3662 490.4092,-147.3662"/>
<polygon fill="#62a8e7" stroke="#62a8e7" points="493.9093,-151.0996 490.4092,-141.0996 486.9093,-151.0997 493.9093,-151.0996"/>
</g>
<!-- temp_2 -->
<!-- unshMask&#45;&gt;temp_2 -->
<!-- mul_3 -->
<g id="node10" class="node">
<title>mul_3</title>
<ellipse fill="#5b9bd5" stroke="#4c7aa4" cx="498.0416" cy="-24.0416" rx="24.0833" ry="24.0833"/>
<text text-anchor="middle" x="498.0416" y="-13.8416" font-family="Helvetica,sans-Serif" font-size="24.00" fill="#ffffff">*</text>
</g>
<!-- bilFil&#45;&gt;mul_3 -->
<g id="edge33" class="edge">
<title>bilFil&#45;&gt;mul_3</title>
<path fill="none" stroke="#62a8e7" d="M184.2789,-57.3124C267.3248,-57.3124 498.4092,-57.3124 498.4092,-57.3124 498.4092,-57.3124 498.4092,-56.4033 498.4092,-56.4033"/>
<polygon fill="#62a8e7" stroke="#62a8e7" points="501.9093,-58.221 498.4092,-48.221 494.9093,-58.2211 501.9093,-58.221"/>
</g>
<!-- temp_3 -->
<!-- bilFil&#45;&gt;temp_3 -->
<!-- blMask -->
<g id="node7" class="node">
<title>blMask</title>
<polygon fill="#5b9bd5" stroke="#4c7aa4" points="368.5,-6.0416 368.5,-42.0416 433.5,-42.0416 433.5,-6.0416 368.5,-6.0416"/>
<text text-anchor="middle" x="401" y="-27.0416" font-family="Helvetica,sans-Serif" font-size="10.00" fill="#ffffff">Generate</text>
<text text-anchor="middle" x="401" y="-16.0416" font-family="Helvetica,sans-Serif" font-size="10.00" fill="#ffffff">blur mask</text>
</g>
<!-- shMask&#45;&gt;blMask -->
<!-- shMask&#45;&gt;mul_2 -->
<g id="edge21" class="edge">
<title>shMask&#45;&gt;mul_2</title>
<path fill="none" stroke="#62a8e7" d="M438.2413,-118.0416C438.2413,-118.0416 463.9291,-118.0416 463.9291,-118.0416"/>
<polygon fill="#62a8e7" stroke="#62a8e7" points="463.9292,-121.5417 473.9291,-118.0416 463.9291,-114.5417 463.9292,-121.5417"/>
</g>
<!-- blMask&#45;&gt;mul_3 -->
<g id="edge23" class="edge">
<title>blMask&#45;&gt;mul_3</title>
<path fill="none" stroke="#62a8e7" d="M433.5834,-24.0416C433.5834,-24.0416 463.9837,-24.0416 463.9837,-24.0416"/>
<polygon fill="#62a8e7" stroke="#62a8e7" points="463.9837,-27.5417 473.9837,-24.0416 463.9837,-20.5417 463.9837,-27.5417"/>
</g>
<!-- mul_1&#45;&gt;mul_2 -->
<!-- sum_1 -->
<g id="node12" class="node">
<title>sum_1</title>
<ellipse fill="#5b9bd5" stroke="#4c7aa4" cx="584.2462" cy="-212.0416" rx="26.3269" ry="26.3269"/>
<text text-anchor="middle" x="584.2462" y="-205.8416" font-family="Helvetica,sans-Serif" font-size="24.00" fill="#ffffff">+</text>
</g>
<!-- mul_1&#45;&gt;sum_1 -->
<g id="edge7" class="edge">
<title>mul_1&#45;&gt;sum_1</title>
<path fill="none" stroke="#62a8e7" d="M522.5138,-212.0416C522.5138,-212.0416 547.9026,-212.0416 547.9026,-212.0416"/>
<polygon fill="#62a8e7" stroke="#62a8e7" points="547.9026,-215.5417 557.9026,-212.0416 547.9025,-208.5417 547.9026,-215.5417"/>
</g>
<!-- temp_7 -->
<!-- mul_2&#45;&gt;temp_7 -->
<g id="edge28" class="edge">
<title>mul_2&#45;&gt;temp_7</title>
<path fill="none" stroke="#62a8e7" d="M522.5138,-118.0416C547.2032,-118.0416 581.9913,-118.0416 584.1415,-118.0416"/>
</g>
<!-- temp_8 -->
<!-- mul_3&#45;&gt;temp_8 -->
<g id="edge29" class="edge">
<title>mul_3&#45;&gt;temp_8</title>
<path fill="none" stroke="#62a8e7" d="M522.5138,-24.0416C547.2032,-24.0416 581.9913,-24.0416 584.1415,-24.0416"/>
</g>
<!-- ld&#45;&gt;temp_2 -->
<!-- temp_4 -->
<!-- ld&#45;&gt;temp_4 -->
<g id="edge4" class="edge">
<title>ld&#45;&gt;temp_4</title>
<path fill="none" stroke="#62a8e7" d="M291.0781,-197.0416C308.6508,-197.0416 326.3575,-197.0416 327.447,-197.0416"/>
</g>
<!-- out -->
<g id="node13" class="node">
<title>out</title>
<polygon fill="#5b9bd5" stroke="#4c7aa4" points="646.4092,-194.0416 646.4092,-230.0416 700.4092,-230.0416 700.4092,-194.0416 646.4092,-194.0416"/>
<text text-anchor="middle" x="673.4092" y="-209.5416" font-family="Helvetica,sans-Serif" font-size="10.00" fill="#ffffff">Output</text>
</g>
<!-- sum_1&#45;&gt;out -->
<g id="edge8" class="edge">
<title>sum_1&#45;&gt;out</title>
<path fill="none" stroke="#62a8e7" d="M610.5158,-212.0416C610.5158,-212.0416 636.4002,-212.0416 636.4002,-212.0416"/>
<polygon fill="#62a8e7" stroke="#62a8e7" points="636.4003,-215.5417 646.4002,-212.0416 636.4002,-208.5417 636.4003,-215.5417"/>
</g>
<!-- temp_1&#45;&gt;fd -->
<g id="edge2" class="edge">
<title>temp_1&#45;&gt;fd</title>
<path fill="none" stroke="#62a8e7" d="M90.4092,-118.0902C90.4092,-120.119 90.4092,-185.0416 90.4092,-185.0416 90.4092,-185.0416 116.4815,-185.0416 116.4815,-185.0416"/>
<polygon fill="#62a8e7" stroke="#62a8e7" points="116.4815,-188.5417 126.4815,-185.0416 116.4815,-181.5417 116.4815,-188.5417"/>
</g>
<!-- temp_1&#45;&gt;unshMask -->
<g id="edge13" class="edge">
<title>temp_1&#45;&gt;unshMask</title>
<path fill="none" stroke="#62a8e7" d="M90.0471,-118.0416C90.0471,-118.0416 116.2535,-118.0416 116.2535,-118.0416"/>
<polygon fill="#62a8e7" stroke="#62a8e7" points="116.2536,-121.5417 126.2535,-118.0416 116.2535,-114.5417 116.2536,-121.5417"/>
</g>
<!-- temp_1&#45;&gt;bilFil -->
<g id="edge14" class="edge">
<title>temp_1&#45;&gt;bilFil</title>
<path fill="none" stroke="#62a8e7" d="M90.4092,-117.9909C90.4092,-115.8712 90.4092,-48.0416 90.4092,-48.0416 90.4092,-48.0416 115.7283,-48.0416 115.7283,-48.0416"/>
<polygon fill="#62a8e7" stroke="#62a8e7" points="115.7284,-51.5417 125.7283,-48.0416 115.7283,-44.5417 115.7284,-51.5417"/>
</g>
<!-- temp_1&#45;&gt;mul_1 -->
<g id="edge34" class="edge">
<title>temp_1&#45;&gt;mul_1</title>
<path fill="none" stroke="#62a8e7" d="M90.4092,-118.1418C90.4092,-122.3255 90.4092,-256.2046 90.4092,-256.2046 90.4092,-256.2046 498.4092,-256.2046 498.4092,-256.2046 498.4092,-256.2046 498.4092,-246.1905 498.4092,-246.1905"/>
<polygon fill="#62a8e7" stroke="#62a8e7" points="501.9093,-246.1905 498.4092,-236.1905 494.9093,-246.1906 501.9093,-246.1905"/>
</g>
<!-- temp_2&#45;&gt;temp_3 -->
<!-- temp_5 -->
<!-- temp_2&#45;&gt;temp_5 -->
<!-- temp_6 -->
<!-- temp_3&#45;&gt;temp_6 -->
<!-- temp_4&#45;&gt;bgMask -->
<g id="edge5" class="edge">
<title>temp_4&#45;&gt;bgMask</title>
<path fill="none" stroke="#62a8e7" d="M327.5533,-197.0416C327.5533,-197.0416 359.7561,-197.0416 359.7561,-197.0416"/>
<polygon fill="#62a8e7" stroke="#62a8e7" points="359.7562,-200.5417 369.7561,-197.0416 359.7561,-193.5417 359.7562,-200.5417"/>
</g>
<!-- temp_4&#45;&gt;temp_5 -->
<g id="edge9" class="edge">
<title>temp_4&#45;&gt;temp_5</title>
<path fill="none" stroke="#62a8e7" d="M328.4092,-196.9844C328.4092,-194.6295 328.4092,-120.4157 328.4092,-118.0971"/>
</g>
<!-- temp_5&#45;&gt;shMask -->
<g id="edge20" class="edge">
<title>temp_5&#45;&gt;shMask</title>
<path fill="none" stroke="#62a8e7" d="M327.5533,-118.0416C327.5533,-118.0416 353.8395,-118.0416 353.8395,-118.0416"/>
<polygon fill="#62a8e7" stroke="#62a8e7" points="353.8396,-121.5417 363.8395,-118.0416 353.8395,-114.5417 353.8396,-121.5417"/>
</g>
<!-- temp_5&#45;&gt;temp_6 -->
<g id="edge10" class="edge">
<title>temp_5&#45;&gt;temp_6</title>
<path fill="none" stroke="#62a8e7" d="M327.4092,-117.9321C327.4092,-116.861 327.4092,-108.2916 327.4092,-108.2916 327.4092,-108.2916 309.4092,-108.2916 309.4092,-108.2916 309.4092,-108.2916 309.4092,-27.0416 309.4092,-27.0416 309.4092,-27.0416 326.387,-27.0416 327.4481,-27.0416"/>
</g>
<!-- temp_6&#45;&gt;blMask -->
<g id="edge22" class="edge">
<title>temp_6&#45;&gt;blMask</title>
<path fill="none" stroke="#62a8e7" d="M327.5533,-27.0416C327.5533,-27.0416 358.4944,-27.0416 358.4944,-27.0416"/>
<polygon fill="#62a8e7" stroke="#62a8e7" points="358.4944,-30.5417 368.4944,-27.0416 358.4943,-23.5417 358.4944,-30.5417"/>
</g>
<!-- temp_7&#45;&gt;sum_1 -->
<g id="edge31" class="edge">
<title>temp_7&#45;&gt;sum_1</title>
<path fill="none" stroke="#62a8e7" d="M584.4092,-118.1098C584.4092,-118.1098 584.4092,-175.5681 584.4092,-175.5681"/>
<polygon fill="#62a8e7" stroke="#62a8e7" points="580.9093,-175.5681 584.4092,-185.5681 587.9093,-175.5681 580.9093,-175.5681"/>
</g>
<!-- temp_8&#45;&gt;temp_7 -->
<g id="edge30" class="edge">
<title>temp_8&#45;&gt;temp_7</title>
<path fill="none" stroke="#62a8e7" d="M584.4092,-24.1098C584.4092,-26.9117 584.4092,-115.2168 584.4092,-117.9756"/>
</g>
<!-- temp_9 -->
</g>
</svg>
