<?xml version="1.0" encoding="UTF-8" standalone="no"?>
<!DOCTYPE svg PUBLIC "-//W3C//DTD SVG 1.1//EN"
 "http://www.w3.org/Graphics/SVG/1.1/DTD/svg11.dtd">
<!-- Generated by graphviz version 2.40.1 (20161225.0304)
 -->
<!-- Title: %3 Pages: 1 -->
<svg width="592pt" height="120pt"
 viewBox="0.00 0.00 591.50 120.00" xmlns="http://www.w3.org/2000/svg" xmlns:xlink="http://www.w3.org/1999/xlink">
<g id="graph0" class="graph" transform="scale(1 1) rotate(0) translate(4 116)">
<title>%3</title>
<polygon fill="#ffffff" stroke="transparent" points="-4,4 -4,-116 587.5,-116 587.5,4 -4,4"/>
<!-- ki_a -->
<g id="node1" class="node">
<title>ki_a</title>
<polygon fill="none" stroke="#000000" points="93.5,-73.5 93.5,-111.5 174.5,-111.5 174.5,-73.5 93.5,-73.5"/>
<text text-anchor="middle" x="134" y="-96.3" font-family="Times,serif" font-size="14.00" fill="#000000">interface</text>
<text text-anchor="middle" x="134" y="-81.3" font-family="Times,serif" font-size="14.00" fill="#000000">A</text>
</g>
<!-- ki_b -->
<g id="node2" class="node">
<title>ki_b</title>
<polygon fill="none" stroke="#000000" points="394.5,-73.5 394.5,-111.5 475.5,-111.5 475.5,-73.5 394.5,-73.5"/>
<text text-anchor="middle" x="435" y="-96.3" font-family="Times,serif" font-size="14.00" fill="#000000">interface</text>
<text text-anchor="middle" x="435" y="-81.3" font-family="Times,serif" font-size="14.00" fill="#000000">B</text>
</g>
<!-- CPU::A -->
<g id="node3" class="node">
<title>CPU::A</title>
<polygon fill="none" stroke="#000000" points="0,-.5 0,-36.5 68,-36.5 68,-.5 0,-.5"/>
<text text-anchor="middle" x="34" y="-14.8" font-family="Times,serif" font-size="14.00" fill="#000000">CPU::A</text>
</g>
<!-- CPU::A&#45;&gt;ki_a -->
<g id="edge1" class="edge">
<title>CPU::A&#45;&gt;ki_a</title>
<path fill="none" stroke="#000000" d="M58.4628,-36.6024C70.9125,-45.8153 86.2498,-57.1649 99.8443,-67.2248"/>
<polygon fill="#000000" stroke="#000000" points="97.9218,-70.1562 108.0422,-73.2912 102.0857,-64.5293 97.9218,-70.1562"/>
</g>
<!-- OpenCL::A -->
<g id="node4" class="node">
<title>OpenCL::A</title>
<polygon fill="none" stroke="#000000" points="86.5,-.5 86.5,-36.5 181.5,-36.5 181.5,-.5 86.5,-.5"/>
<text text-anchor="middle" x="134" y="-14.8" font-family="Times,serif" font-size="14.00" fill="#000000">OpenCL::A</text>
</g>
<!-- OpenCL::A&#45;&gt;ki_a -->
<g id="edge2" class="edge">
<title>OpenCL::A&#45;&gt;ki_a</title>
<path fill="none" stroke="#000000" d="M134,-36.7921C134,-44.7904 134,-54.3713 134,-63.3141"/>
<polygon fill="#000000" stroke="#000000" points="130.5001,-63.386 134,-73.386 137.5001,-63.3861 130.5001,-63.386"/>
</g>
<!-- Halide::A -->
<g id="node5" class="node">
<title>Halide::A</title>
<polygon fill="none" stroke="#000000" points="199.5,-.5 199.5,-36.5 282.5,-36.5 282.5,-.5 199.5,-.5"/>
<text text-anchor="middle" x="241" y="-14.8" font-family="Times,serif" font-size="14.00" fill="#000000">Halide::A</text>
</g>
<!-- Halide::A&#45;&gt;ki_a -->
<g id="edge3" class="edge">
<title>Halide::A&#45;&gt;ki_a</title>
<path fill="none" stroke="#000000" d="M214.8249,-36.6024C201.3779,-45.9022 184.7828,-57.3792 170.1354,-67.5092"/>
<polygon fill="#000000" stroke="#000000" points="168.0087,-64.7244 161.7749,-73.2912 171.9904,-70.4817 168.0087,-64.7244"/>
</g>
<!-- CPU::B -->
<g id="node6" class="node">
<title>CPU::B</title>
<polygon fill="none" stroke="#000000" points="301,-.5 301,-36.5 369,-36.5 369,-.5 301,-.5"/>
<text text-anchor="middle" x="335" y="-14.8" font-family="Times,serif" font-size="14.00" fill="#000000">CPU::B</text>
</g>
<!-- CPU::B&#45;&gt;ki_b -->
<g id="edge4" class="edge">
<title>CPU::B&#45;&gt;ki_b</title>
<path fill="none" stroke="#000000" d="M359.4628,-36.6024C371.9125,-45.8153 387.2498,-57.1649 400.8443,-67.2248"/>
<polygon fill="#000000" stroke="#000000" points="398.9218,-70.1562 409.0422,-73.2912 403.0857,-64.5293 398.9218,-70.1562"/>
</g>
<!-- OpenCL::B -->
<g id="node7" class="node">
<title>OpenCL::B</title>
<polygon fill="none" stroke="#000000" points="387.5,-.5 387.5,-36.5 482.5,-36.5 482.5,-.5 387.5,-.5"/>
<text text-anchor="middle" x="435" y="-14.8" font-family="Times,serif" font-size="14.00" fill="#000000">OpenCL::B</text>
</g>
<!-- OpenCL::B&#45;&gt;ki_b -->
<g id="edge5" class="edge">
<title>OpenCL::B&#45;&gt;ki_b</title>
<path fill="none" stroke="#000000" d="M435,-36.7921C435,-44.7904 435,-54.3713 435,-63.3141"/>
<polygon fill="#000000" stroke="#000000" points="431.5001,-63.386 435,-73.386 438.5001,-63.3861 431.5001,-63.386"/>
</g>
<!-- Halide::B -->
<g id="node8" class="node">
<title>Halide::B</title>
<polygon fill="none" stroke="#000000" points="500.5,-.5 500.5,-36.5 583.5,-36.5 583.5,-.5 500.5,-.5"/>
<text text-anchor="middle" x="542" y="-14.8" font-family="Times,serif" font-size="14.00" fill="#000000">Halide::B</text>
</g>
<!-- Halide::B&#45;&gt;ki_b -->
<g id="edge6" class="edge">
<title>Halide::B&#45;&gt;ki_b</title>
<path fill="none" stroke="#000000" d="M515.8249,-36.6024C502.3779,-45.9022 485.7828,-57.3792 471.1354,-67.5092"/>
<polygon fill="#000000" stroke="#000000" points="469.0087,-64.7244 462.7749,-73.2912 472.9904,-70.4817 469.0087,-64.7244"/>
</g>
</g>
</svg>
